<svg width="578" height="240" viewBox="0 0 578 240" fill="none" xmlns="http://www.w3.org/2000/svg">
<path fill-rule="evenodd" clip-rule="evenodd" d="M332.702 144.979H332.69C331.62 144.979 330.675 145.332 329.788 146.049C329.127 146.573 328.672 147.278 328.308 148.064H328.353C328.717 147.278 329.173 146.573 329.822 146.049C330.709 145.332 331.654 144.99 332.702 144.979Z" fill="#BD0000"/>
<path fill-rule="evenodd" clip-rule="evenodd" d="M332.736 144.979C332.724 144.979 332.713 144.979 332.702 144.979C333.806 144.99 334.534 145.366 335.024 146.174C335.24 146.516 335.354 147.028 335.354 147.677C335.354 147.791 335.331 147.939 335.32 148.064H335.365C335.365 147.939 335.388 147.791 335.388 147.677C335.388 147.028 335.286 146.516 335.069 146.174C334.58 145.355 333.84 144.979 332.736 144.979Z" fill="#BD0000"/>
<path fill-rule="evenodd" clip-rule="evenodd" d="M0.9375 239.051H9.42937L13.2427 223.115H27.0392L28.815 216.285H14.9616L17.261 206.04H32.0023L33.778 198.072H10.4994L0.9375 239.051Z" fill="#663366"/>
<path fill-rule="evenodd" clip-rule="evenodd" d="M39.0258 239.051L41.5757 228.351C42.9189 222.557 45.7533 217.423 51.1148 217.423C51.5929 217.423 52.0596 217.662 52.4125 217.719L54.4842 209.512C54.0061 209.512 53.4825 209.455 52.8906 209.455C48.9406 209.455 45.6281 212.232 43.4198 216.216H43.1921C43.5222 214.27 43.8068 212.426 44.0231 210.593H36.7037C36.2825 212.961 35.6336 217.594 34.6433 221.771L30.4771 239.051H39.0258Z" fill="#663366"/>
<path fill-rule="evenodd" clip-rule="evenodd" d="M76.7953 231.367C74.439 232.517 71.7525 232.221 68.6221 232.221C66.152 232.221 64.2396 231.788 63.1924 230.946C62.646 230.024 62.4183 228.59 62.4638 227.668C73.995 227.975 81.2689 225.311 81.6331 218.026C81.9063 212.528 77.8881 209.455 72.0485 209.455C61.6215 209.455 54.7915 218.652 54.3476 227.508C53.9606 235.238 57.9675 239.051 66.2317 239.051C69.4076 239.051 73.6194 238.687 77.0685 237.651L76.7953 231.367ZM73.6763 218.026C73.5397 220.735 70.193 220.895 63.6021 220.838C64.3193 218.459 66.7325 216.285 70.6825 216.285C72.629 216.285 73.7446 217.024 73.6763 218.026Z" fill="#663366"/>
<path fill-rule="evenodd" clip-rule="evenodd" d="M106.972 231.367C104.616 232.517 101.929 232.221 98.8103 232.221C96.3288 232.221 94.4278 231.788 93.3805 230.946C92.8341 230.024 92.5951 228.59 92.6406 227.668C104.183 227.975 111.446 225.311 111.821 218.026C112.095 212.528 108.076 209.455 102.237 209.455C91.7983 209.455 84.9683 218.652 84.5244 227.508C84.1488 235.238 88.1556 239.051 96.4085 239.051C99.5958 239.051 103.808 238.687 107.257 237.651L106.972 231.367ZM103.864 218.026C103.728 220.735 100.381 220.895 93.779 220.838C94.5075 218.459 96.9093 216.285 100.859 216.285C102.806 216.285 103.933 217.024 103.864 218.026Z" fill="#663366"/>
<path fill-rule="evenodd" clip-rule="evenodd" d="M150.911 239.051C150.979 235.442 151.845 229.774 152.744 226.051L156.398 210.593C154.076 209.807 150.456 209.455 146.973 209.455C132.835 209.455 125.823 219.927 125.333 229.739C125.026 235.898 128.361 239.051 133.552 239.051C136.91 239.051 140.7 237.423 143.649 232.528H143.774C143.546 234.885 143.273 237.173 143.125 239.051H150.911ZM145.072 222.796C143.41 230.035 140.017 232.221 137.49 232.221C135.134 232.221 134.11 230.548 134.246 228.112C134.519 222.614 138.868 216.285 144.354 216.285C145.242 216.285 145.937 216.125 146.586 215.966L145.072 222.796Z" fill="#663366"/>
<path fill-rule="evenodd" clip-rule="evenodd" d="M156.478 237.708C158.117 238.983 161.555 238.994 165.14 239.051C172.801 239.108 178.584 235.761 178.925 229.614C179.119 225.516 175.943 223.092 172.835 221.464C170.593 220.382 169.466 219.347 169.523 218.14C169.603 216.512 171.128 216.285 173.37 216.285C175.898 216.285 177.924 216.592 179.085 216.82L181.384 210.65C180.075 209.864 177.457 209.455 174.099 209.455C166.666 209.455 161.225 213.382 160.917 219.347C160.735 223.035 163.387 225.516 166.597 227.201C169.193 228.533 170.081 229.557 170.012 231.003C169.933 232.46 168.635 232.221 166.279 232.221C163.513 232.221 160.451 231.857 158.834 231.606L156.478 237.708Z" fill="#663366"/>
<path fill-rule="evenodd" clip-rule="evenodd" d="M201.897 239.051L208.784 210.593H200.349L193.416 239.051H201.897ZM205.847 207.178C208.738 207.178 211.311 204.788 211.47 200.69C211.607 197.912 209.808 196.933 207.156 196.933C204.39 196.933 201.863 198.732 201.715 201.418C201.578 204.127 203.377 207.178 205.847 207.178Z" fill="#663366"/>
<path fill-rule="evenodd" clip-rule="evenodd" d="M218.175 239.051L221.18 226.234C222.739 219.711 226.097 217.423 228.864 217.423C231.049 217.423 231.687 218.356 231.584 219.711C231.527 220.804 231.356 221.953 231.129 222.978L227.304 239.051H235.796L239.826 222.192C240.133 220.735 240.474 218.561 240.543 217.241C240.793 212.107 238.232 210.24 233.519 210.24C229.74 210.24 226.063 211.993 223.161 215.795H223.047L223.821 210.593H216.331C215.841 213.029 215.215 215.977 214.327 219.415L209.683 239.051H218.175Z" fill="#663366"/>
<path fill-rule="evenodd" clip-rule="evenodd" d="M254.715 239.051H263.207L267.031 223.115H280.817L282.592 216.285H268.739L271.038 206.04H285.78L287.555 198.072H264.277L254.715 239.051Z" fill="#663366"/>
<path fill-rule="evenodd" clip-rule="evenodd" d="M292.803 239.051L295.353 228.351C296.696 222.557 299.53 217.423 304.892 217.423C305.37 217.423 305.837 217.662 306.19 217.719L308.261 209.512C307.783 209.512 307.26 209.455 306.668 209.455C302.718 209.455 299.405 212.232 297.197 216.216H296.969C297.299 214.27 297.584 212.426 297.8 210.593H290.481C290.071 212.961 289.411 217.594 288.42 221.771L284.254 239.051H292.803Z" fill="#663366"/>
<path fill-rule="evenodd" clip-rule="evenodd" d="M330.573 231.367C328.216 232.517 325.53 232.221 322.399 232.221C319.929 232.221 318.017 231.788 316.97 230.946C316.423 230.024 316.196 228.59 316.241 227.668C327.772 227.975 335.046 225.311 335.41 218.026C335.684 212.528 331.665 209.455 325.826 209.455C315.399 209.455 308.569 218.652 308.125 227.508C307.738 235.238 311.756 239.051 320.009 239.051C323.185 239.051 327.408 238.687 330.846 237.651L330.573 231.367ZM327.454 218.026C327.317 220.735 323.97 220.895 317.379 220.838C318.097 218.459 320.51 216.285 324.46 216.285C326.406 216.285 327.522 217.024 327.454 218.026Z" fill="#663366"/>
<path fill-rule="evenodd" clip-rule="evenodd" d="M360.749 231.367C358.393 232.517 355.706 232.221 352.587 232.221C350.106 232.221 348.205 231.788 347.158 230.946C346.611 230.024 346.372 228.59 346.418 227.668C357.96 227.975 365.223 225.311 365.598 218.026C365.872 212.528 361.853 209.455 356.014 209.455C345.575 209.455 338.745 218.652 338.302 227.508C337.926 235.238 341.933 239.051 350.186 239.051C353.373 239.051 357.585 238.687 361.034 237.651L360.749 231.367ZM357.642 218.026C357.505 220.735 354.158 220.895 347.556 220.838C348.285 218.459 350.686 216.285 354.636 216.285C356.583 216.285 357.71 217.024 357.642 218.026Z" fill="#663366"/>
<path fill-rule="evenodd" clip-rule="evenodd" d="M394.489 196.933L391.291 209.864C390.129 209.386 388.615 209.455 387.432 209.455C376.527 209.455 368.809 218.789 368.296 228.897C367.955 236.023 371.757 239.051 376.652 239.051C380.078 239.051 383.687 237.537 386.419 233.621H386.532L385.884 239.051H393.601C393.954 235.636 394.694 231.572 395.525 227.861L402.913 196.933H394.489ZM387.841 224.731C386.51 230.343 383.368 232.221 380.886 232.221C378.416 232.221 377.039 230.502 377.21 227.44C377.494 221.771 381.387 216.285 386.453 216.285C387.876 216.285 389.094 216.501 389.765 216.82L387.841 224.731Z" fill="#663366"/>
<path fill-rule="evenodd" clip-rule="evenodd" d="M413.852 239.051C423.755 239.051 431.393 231.549 431.928 221.339C432.259 214.577 428.047 209.455 420.272 209.455C410.004 209.455 402.639 217.764 402.127 227.804C401.774 235.112 406.487 239.051 413.852 239.051ZM415.184 232.221C412.292 232.221 410.699 230.377 410.869 227.622C411.097 223.035 413.932 216.285 418.815 216.285C422.184 216.285 423.22 218.869 423.084 221.407C422.833 226.416 419.783 232.221 415.184 232.221Z" fill="#663366"/>
<path fill-rule="evenodd" clip-rule="evenodd" d="M442.481 239.051L445.554 226.051C446.841 220.257 450.051 216.285 452.931 216.285C455.002 216.285 455.572 217.798 455.469 219.779C455.412 220.804 455.184 221.953 454.945 223.092L451.143 239.051H459.339L462.413 225.994C463.824 220.018 466.852 216.285 469.675 216.285C471.622 216.285 472.43 217.673 472.339 219.654C472.282 220.804 472.043 222.067 471.747 223.217L468.059 239.051H476.312L480.284 222.192C480.592 220.678 480.945 218.322 481.002 217.115C481.252 212.107 478.805 209.455 474.388 209.455C470.609 209.455 466.932 211.162 464.143 214.759C464.041 212.164 462.185 209.455 457.586 209.455C453.864 209.455 450.312 211.139 447.467 214.953H447.353L448.116 210.593H440.807C440.329 213.029 439.749 215.977 438.861 219.415L434.285 239.051H442.481Z" fill="#663366"/>
<path d="M361.758 162.675C362.22 163.863 362.682 165.049 363.164 166.209C363.905 167.785 364.762 169.293 365.792 170.702C371.356 178.266 380.675 182.407 392.507 183.438H405.233C409.257 183.124 413.474 182.539 417.845 181.684C425.383 180.21 433.373 177.946 441.672 174.92C447.958 172.628 454.418 169.916 460.974 166.764C475.251 159.92 489.999 151.094 504.469 140.441C509.234 136.936 513.807 133.339 518.197 129.682C522.221 126.334 526.081 122.934 529.768 119.496C540.059 109.578 547.828 99.5055 552.228 90.6611C556.81 81.4509 557.725 73.5762 553.97 68.6154C551.67 65.5703 547.819 63.9385 542.861 63.5544C565.195 46.7958 578.211 26.4665 573.542 13.6491C572.059 9.55864 568.796 6.50681 564.117 4.81915C562.038 4.07129 559.698 3.5975 557.147 3.38184H550.274C540.676 4.07411 526.718 7.51093 514.877 13.314" stroke="#663266" stroke-width="5.6916"/>
<path fill-rule="evenodd" clip-rule="evenodd" d="M50.6545 7.83456L11.0623 180.575C11.0737 180.575 115.213 180.575 115.236 180.575C161.035 180.575 298.398 180.575 298.398 180.575H393.662C382.313 179.584 373.353 175.6 368.014 168.338C367.024 166.994 366.205 165.547 365.488 164.033C365.033 162.918 364.605 161.792 364.172 160.654C363.034 157.034 362.58 153.017 362.785 148.737C363.354 136.808 368.952 122.617 378.65 107.758C388.952 91.9658 403.882 75.4143 422.369 60.055C426.512 56.615 430.797 53.2181 435.282 49.9168C440.825 45.8383 446.412 42.082 452.001 38.5692C472.593 25.6048 493.134 16.5333 511.336 11.9254C493.942 17.5999 474.402 27.2333 455.096 40.3479C454.401 40.8168 453.715 41.2971 453.032 41.7708C442.321 49.1926 432.616 57.0749 424.147 65.0351C396.896 90.6587 382.492 117.21 389.037 132.765C389.504 133.835 390.06 134.857 390.709 135.825C397.744 146.172 415.179 147.96 437.274 142.405C438.776 142.03 440.279 141.604 441.827 141.16C448.885 139.123 456.378 136.371 464.095 132.979C465.951 132.159 467.826 131.317 469.716 130.417C469.909 130.326 470.091 130.235 470.285 130.133C494.645 118.029 513.366 104.102 517.419 95.7343C518.307 93.9141 518.52 92.3622 517.916 91.1454C515.025 85.283 494.793 89.2435 470.285 99.8606C468.316 100.714 466.324 101.593 464.309 102.529C465.948 101.007 467.654 99.4789 469.396 97.9753C472.173 95.5825 475.049 93.2428 478.111 90.9319C482.903 87.303 487.748 84.0223 492.518 81.114C514.852 64.2645 526.142 48.3259 523.786 42.411C523.342 41.2965 522.397 40.53 520.94 40.0631C516.284 38.5822 507.787 40.3498 497.462 44.581C488.948 48.0734 479.168 53.2529 469.253 59.6993L467.902 60.5887L467.653 60.7309L462.886 63.8968L465.625 58.8812C469.689 51.4421 476.308 43.6805 484.55 36.4704C490.594 31.1987 497.499 26.2319 504.933 21.8857C507.744 20.2396 510.552 18.7108 513.363 17.3324C516.243 15.9253 519.125 14.6749 521.936 13.5616C530.105 10.3312 539.078 6.25157 545.879 5.71777C545.259 5.71777 525.6 7.83456 525.6 7.83456H461.214H177.31H50.6545ZM359.05 8.08368C357.934 25.1095 361.235 50.0471 368.725 77.7345C370.057 82.6611 371.507 87.6749 373.101 92.7461C374.091 95.8777 375.113 98.9601 376.16 101.995C375.545 102.899 374.927 103.797 374.346 104.699C365 119.021 359.538 132.556 358.16 144.326C354.21 131.099 351.237 116.611 349.552 101.248C349.074 96.8461 348.7 92.4935 348.449 88.1929C346.605 56.9539 350.683 28.6359 359.05 8.08368ZM172.543 30.2452C172.756 30.2402 172.966 30.2452 173.183 30.2452H215.266C218.863 30.2452 221.644 30.9194 223.625 32.2729C225.594 33.6343 226.333 35.3954 225.866 37.5377L220.85 60.1973H206.017L210.89 38.1424H173.752L160.342 98.7578L155.504 120.706H192.606L192.641 120.564L200.076 86.9833H182.646L184.318 79.4065H216.582L207.333 121.311C207.208 121.907 206.989 122.448 206.693 122.983C205.93 124.371 204.6 125.561 202.744 126.54C200.171 127.895 197.092 128.568 193.495 128.568H151.449C147.851 128.568 145.07 127.895 143.089 126.54C141.12 125.186 140.37 123.456 140.848 121.311L159.381 37.5377C159.859 35.3954 161.35 33.6343 163.934 32.2729C164.025 32.2238 164.128 32.2127 164.219 32.1662C166.578 30.9849 169.345 30.3208 172.543 30.2452ZM238.495 30.2452H291.462C295.013 30.2452 297.805 30.9194 299.786 32.2729C301.778 33.6343 302.541 35.3954 302.063 37.5377L292.173 82.2167C291.707 84.3453 290.18 86.082 287.585 87.4458C284.989 88.8141 281.934 89.509 278.371 89.509H239.882L232.447 123.054L231.238 128.568H216.724L217.827 123.587L238.495 30.2452ZM311.667 30.2452H326.181L309.746 104.485L306.153 120.706H340.872C341.236 123.369 341.662 125.984 342.117 128.568H289.897L294.023 109.928L311.667 30.2452ZM251.265 38.1424L241.625 81.6119H277.802L287.407 38.1424H251.265ZM174.122 140.738C174.264 140.733 174.406 140.738 174.549 140.738C176.233 140.738 177.705 141.034 178.889 141.592C180.152 142.184 181.056 143.063 181.557 144.224C182.046 145.351 182.174 146.63 181.912 148.03L181.806 148.564H177.644L177.679 148.066C177.787 147.088 177.666 146.318 177.288 145.789C177.239 145.723 177.167 145.635 177.11 145.576C177.016 145.48 176.875 145.37 176.754 145.291C176.172 144.924 175.261 144.722 174.086 144.722C172.527 144.722 171.361 144.994 170.565 145.54C169.791 146.075 169.301 146.673 169.142 147.39C168.982 148.119 169.244 148.501 169.426 148.706C169.432 148.712 169.455 148.735 169.462 148.742C169.693 148.938 170.494 149.399 172.984 149.987C175.238 150.533 176.73 151.024 177.573 151.445C178.847 152.094 179.738 152.935 180.205 153.971C180.672 154.996 180.774 156.195 180.489 157.493C180.205 158.756 179.56 159.922 178.604 161.014C177.659 162.107 176.457 162.972 175.011 163.576C173.577 164.168 172.003 164.5 170.387 164.5C168.338 164.5 166.693 164.19 165.407 163.576C164.063 162.938 163.094 161.932 162.525 160.623C161.979 159.348 161.862 157.901 162.169 156.319L162.276 155.821H166.367L166.332 156.319C166.229 157.264 166.33 158.026 166.58 158.595C166.82 159.142 167.275 159.594 168.003 159.947C168.778 160.323 169.745 160.516 170.849 160.516C171.84 160.516 172.745 160.35 173.553 160.054C174.35 159.769 174.983 159.394 175.438 158.916C175.882 158.438 176.142 157.932 176.256 157.386C176.37 156.897 176.343 156.482 176.15 156.141C175.933 155.777 175.505 155.454 174.833 155.181L171.347 154.149C169.401 153.659 168.09 153.193 167.328 152.726C166.292 152.111 165.545 151.323 165.158 150.378C164.771 149.445 164.729 148.41 164.98 147.283C165.242 146.077 165.824 144.929 166.723 143.904C167.634 142.868 168.809 142.056 170.209 141.521C171.447 141.056 172.75 140.784 174.122 140.738ZM211.473 140.809C211.698 140.792 211.91 140.809 212.149 140.809L214.71 141.094L215.564 141.165L214.319 144.331L214.07 144.829L212.113 144.651C211.536 144.651 211.111 144.74 210.833 144.936C210.814 144.949 210.779 144.992 210.762 145.007C210.724 145.039 210.662 145.096 210.619 145.149C210.448 145.374 210.24 145.775 210.086 146.501C210.086 146.501 210.012 146.808 209.944 147.07C210.843 147.07 213.003 147.07 213.003 147.07L212.22 150.592C212.22 150.592 209.983 150.592 209.232 150.592C209.004 151.616 206.208 164.145 206.208 164.145H202.082C202.082 164.145 204.764 152.106 205.106 150.592C204.411 150.592 202.722 150.592 202.722 150.592L203.505 147.07C203.505 147.07 205.204 147.07 205.853 147.07C205.966 146.581 206.137 145.967 206.137 145.967C206.388 144.829 206.649 144.011 206.991 143.441C207.458 142.656 208.116 141.999 208.947 141.521C209.632 141.123 210.498 140.885 211.473 140.809ZM221.327 140.987C221.327 140.987 220.248 145.841 219.975 147.07C220.772 147.07 222.643 147.07 222.643 147.07L221.86 150.592C221.86 150.592 219.898 150.592 219.192 150.592C218.976 151.57 217.271 159.165 217.271 159.165C217.271 159.165 217.129 160.077 217.129 160.338C217.129 160.347 217.128 160.368 217.129 160.374V160.41H217.165L217.592 160.445L219.548 160.303L219.335 163.469L219.37 164.038L216.56 164.358C215.445 164.358 214.626 164.176 214.034 163.789C213.408 163.379 213.044 162.836 212.896 162.153C212.873 162.027 212.825 161.845 212.825 161.583C212.825 161.071 212.922 160.205 213.252 158.702C213.252 158.702 214.747 152.003 215.066 150.592C214.531 150.592 213.11 150.592 213.11 150.592L213.892 147.07C213.892 147.07 215.279 147.07 215.849 147.07C216.031 146.25 216.667 143.441 216.667 143.441L219.975 141.698L221.327 140.987ZM90.2419 141.129H106.25L105.36 145.114C105.36 145.114 94.6814 145.114 93.6569 145.114C93.4748 145.922 92.7449 149.194 92.483 150.378C93.9629 150.378 102.621 150.378 102.621 150.378L101.732 154.362C101.732 154.362 92.6182 154.362 91.5937 154.362C91.3774 155.353 89.4238 164.145 89.4238 164.145H85.1195L90.2419 141.129ZM111.692 146.75C111.853 146.73 112.028 146.75 112.19 146.75C113.215 146.75 114.161 147.061 115.072 147.71L115.641 148.102L113.435 151.73L112.83 151.303C112.387 151.018 111.908 150.876 111.408 150.876C110.975 150.876 110.572 151.03 110.163 151.303C109.73 151.588 109.369 151.965 109.095 152.477C108.617 153.353 108.267 154.335 108.028 155.394L106.107 164.145H101.981L105.787 147.07H109.629C109.629 147.07 109.497 147.588 109.451 147.781C109.633 147.645 109.825 147.457 109.985 147.354C110.536 147.025 111.118 146.82 111.692 146.75ZM123.929 146.75C124.178 146.731 124.422 146.75 124.676 146.75C126.998 146.75 128.756 147.564 129.905 149.169C130.622 150.204 131.008 151.485 131.008 153.011C131.008 153.853 130.904 154.759 130.688 155.75L130.368 156.995C130.368 156.995 119.932 156.995 118.771 156.995C118.748 157.234 118.735 157.49 118.735 157.706C118.735 158.594 118.918 159.293 119.305 159.805C119.489 160.055 119.702 160.281 119.945 160.445C120.403 160.744 120.995 160.908 121.688 160.908C122.53 160.908 123.27 160.676 123.965 160.232C124.625 159.811 125.257 159.137 125.814 158.204H130.225L129.834 159.058C128.992 160.765 127.816 162.097 126.348 163.042C124.88 163.987 123.125 164.5 121.19 164.5C118.674 164.5 116.802 163.687 115.641 162.082C114.491 160.511 114.243 158.339 114.858 155.607C115.473 152.83 116.699 150.61 118.487 149.062C120.088 147.673 121.906 146.903 123.929 146.75ZM142.462 146.75C142.711 146.731 142.955 146.75 143.209 146.75C145.532 146.75 147.289 147.564 148.439 149.169C149.156 150.204 149.541 151.485 149.541 153.011C149.541 153.842 149.437 154.735 149.221 155.714L148.901 156.995C148.901 156.995 138.465 156.995 137.304 156.995C137.293 157.154 137.28 157.298 137.269 157.457C137.26 157.517 137.273 157.608 137.269 157.67C137.269 157.681 137.269 157.696 137.269 157.706C137.269 157.877 137.293 158.045 137.304 158.204C137.361 158.853 137.531 159.395 137.838 159.805C137.897 159.885 137.952 159.983 138.016 160.054C138.537 160.612 139.275 160.908 140.221 160.908C141.064 160.908 141.815 160.676 142.498 160.232C143.158 159.811 143.79 159.137 144.348 158.204H148.794L148.367 159.058C147.525 160.765 146.35 162.097 144.881 163.042C143.413 163.987 141.658 164.5 139.723 164.5C137.208 164.5 135.335 163.687 134.174 162.082C133.423 161.057 133.071 159.752 133.071 158.204C133.071 157.965 133.084 157.707 133.107 157.457C133.152 156.865 133.243 156.268 133.391 155.607C134.006 152.841 135.197 150.61 136.984 149.062C138.586 147.673 140.439 146.903 142.462 146.75ZM192.94 146.75C193.194 146.73 193.428 146.75 193.687 146.75C196.055 146.75 197.874 147.551 199.058 149.133C200.231 150.715 200.515 152.85 199.912 155.536C199.445 157.631 198.771 159.323 197.849 160.552C196.927 161.781 195.752 162.786 194.363 163.469C192.985 164.152 191.527 164.5 190.058 164.5C187.645 164.5 185.848 163.675 184.687 162.082C183.936 161.068 183.549 159.764 183.549 158.204C183.549 157.362 183.641 156.467 183.869 155.465C184.552 152.414 185.946 150.091 187.995 148.6C189.499 147.514 191.16 146.887 192.94 146.75ZM255.441 146.75C255.741 146.731 256.019 146.75 256.33 146.75C257.764 146.75 258.891 146.895 259.745 147.248C260.656 147.612 261.302 148.127 261.666 148.742C262.019 149.322 262.199 150.035 262.199 150.912L261.773 153.508L260.99 157.03C260.318 160.035 260.171 161.162 260.136 161.583C260.102 162.153 260.155 162.707 260.314 163.22L260.599 164.145H256.401L256.223 163.611C256.155 163.361 256.175 163.042 256.152 162.757C255.355 163.247 254.557 163.681 253.84 163.931C252.781 164.296 251.683 164.5 250.567 164.5C248.632 164.5 247.199 163.997 246.334 163.006C245.674 162.278 245.374 161.387 245.374 160.374C245.374 159.987 245.425 159.586 245.516 159.165C245.709 158.299 246.061 157.498 246.619 156.781C247.165 156.075 247.811 155.495 248.54 155.074C249.245 154.653 250.032 154.354 250.852 154.149L253.378 153.722C255.324 153.494 256.777 153.211 257.824 152.904C257.847 152.79 257.895 152.655 257.895 152.655C258.06 151.922 258.04 151.372 257.86 151.09C257.846 151.071 257.803 151.034 257.788 151.018C257.75 150.977 257.691 150.913 257.646 150.876C257.218 150.537 256.488 150.378 255.512 150.378C254.408 150.378 253.591 150.559 253.022 150.912C252.464 151.265 251.948 151.911 251.492 152.833H247.188L247.579 151.979C248.091 150.795 248.702 149.813 249.465 149.062C250.227 148.311 251.257 147.729 252.453 147.319C253.369 147.017 254.369 146.816 255.441 146.75ZM273.476 146.75C273.637 146.73 273.812 146.75 273.974 146.75C275.01 146.75 275.98 147.061 276.891 147.71L277.425 148.102L275.219 151.73L274.614 151.303C274.17 151.018 273.716 150.876 273.227 150.876C272.794 150.876 272.367 151.03 271.946 151.303C271.514 151.588 271.199 151.965 270.915 152.477C270.448 153.353 270.087 154.335 269.848 155.394L267.891 164.145H263.765L267.571 147.07H271.413C271.413 147.07 271.316 147.588 271.271 147.781C271.453 147.645 271.633 147.457 271.804 147.354C272.347 147.025 272.903 146.82 273.476 146.75ZM285.677 146.75C285.926 146.731 286.17 146.75 286.424 146.75C288.747 146.75 290.515 147.564 291.654 149.169C292.382 150.204 292.756 151.485 292.756 153.011C292.756 153.853 292.617 154.759 292.401 155.75L292.116 156.995C292.116 156.995 281.669 156.995 280.519 156.995C280.497 157.234 280.448 157.49 280.448 157.706C280.448 158.594 280.642 159.293 281.017 159.805C281.076 159.885 281.166 159.983 281.231 160.054C281.268 160.094 281.334 160.159 281.373 160.196C281.882 160.659 282.575 160.908 283.436 160.908C284.279 160.908 285.019 160.676 285.713 160.232C286.373 159.811 286.994 159.137 287.563 158.204H292.009L291.582 159.058C290.74 160.765 289.553 162.097 288.096 163.042C286.616 163.987 284.885 164.5 282.938 164.5C280.423 164.5 278.586 163.687 277.425 162.082C276.275 160.511 276.003 158.339 276.606 155.607C277.221 152.83 278.412 150.61 280.199 149.062C281.811 147.673 283.656 146.903 285.677 146.75ZM223.39 147.07H227.623C227.623 147.07 228.145 157.202 228.157 157.35C228.327 156.987 228.46 156.682 228.477 156.639L233.137 147.07H237.014C237.014 147.07 237.37 157.08 237.37 157.137C237.484 156.932 242.67 147.07 242.67 147.07H246.868L237.619 164.145H233.813C233.813 164.145 233.444 154.886 233.421 154.362C231.85 157.584 228.655 164.145 228.655 164.145H224.742L223.39 147.07ZM124 150.307C123.02 150.348 122.129 150.702 121.297 151.374C120.637 151.898 120.191 152.616 119.838 153.402H126.846C126.857 153.277 126.882 153.124 126.882 153.011C126.882 152.362 126.766 151.858 126.561 151.516C126.061 150.697 125.318 150.307 124.214 150.307C124.148 150.307 124.066 150.304 124 150.307ZM142.534 150.307C141.553 150.348 140.662 150.702 139.83 151.374C139.17 151.898 138.736 152.616 138.372 153.402H145.379C145.391 153.277 145.415 153.124 145.415 153.011C145.415 152.362 145.311 151.858 145.095 151.516C144.995 151.35 144.861 151.184 144.739 151.054C144.264 150.563 143.61 150.307 142.747 150.307C142.681 150.307 142.599 150.304 142.534 150.307ZM285.891 150.307C284.882 150.338 283.941 150.68 283.08 151.374C282.432 151.898 281.986 152.616 281.622 153.402H288.594C288.606 153.277 288.63 153.124 288.63 153.011C288.63 152.362 288.526 151.858 288.31 151.516C287.82 150.708 287.066 150.318 285.962 150.307C285.929 150.307 285.923 150.306 285.891 150.307ZM192.691 150.378C191.75 150.49 190.875 150.919 190.058 151.659C189.08 152.547 188.369 153.941 187.96 155.785C187.789 156.559 187.711 157.221 187.711 157.813C187.711 158.621 187.866 159.256 188.173 159.734C188.255 159.856 188.364 159.986 188.458 160.089C188.964 160.627 189.67 160.908 190.556 160.908C191.706 160.908 192.719 160.479 193.687 159.591C194.666 158.692 195.364 157.283 195.786 155.394C196.173 153.664 196.119 152.372 195.572 151.552C195.049 150.755 194.283 150.378 193.224 150.378C193.045 150.378 192.865 150.357 192.691 150.378ZM256.97 156.603C256.003 156.865 254.918 157.086 253.484 157.279C252.414 157.439 251.652 157.607 251.208 157.777C250.821 157.937 250.509 158.157 250.247 158.453C249.997 158.738 249.829 159.036 249.749 159.378C249.726 159.515 249.714 159.655 249.714 159.769C249.714 159.779 249.713 159.796 249.714 159.805C249.715 159.832 249.711 159.885 249.714 159.912C249.721 159.963 249.735 160.041 249.749 160.089C249.754 160.105 249.779 160.145 249.785 160.161C249.797 160.191 249.805 160.238 249.82 160.267C249.836 160.296 249.872 160.346 249.891 160.374C249.921 160.415 249.962 160.478 249.998 160.516C250.283 160.835 250.851 160.979 251.67 160.979C252.569 160.979 253.434 160.808 254.231 160.41C255.017 160.022 255.65 159.445 256.117 158.773C256.458 158.295 256.731 157.559 256.97 156.603ZM39.688 128.081L135.157 29.5108H150.748L127.697 128.081H114.873L121.418 99.7072H81.3961L54.1986 128.081H39.688ZM91.122 89.5542H123.855L129.895 64.8107C132.332 54.9941 134.678 46.8135 136.933 40.2689C132.427 45.917 126.465 52.6183 119.047 60.373L91.122 89.5542Z" fill="#663366"/>
</svg>
