<svg width="110" height="47" viewBox="0 0 110 47" fill="none" xmlns="http://www.w3.org/2000/svg">
<path fill-rule="evenodd" clip-rule="evenodd" d="M63.2654 28.2378H63.2632C63.0597 28.2378 62.8799 28.3049 62.711 28.4414C62.5854 28.541 62.4987 28.6753 62.4294 28.8247H62.4381C62.5074 28.6753 62.594 28.541 62.7175 28.4414C62.8864 28.3049 63.0661 28.24 63.2654 28.2378Z" fill="#BD0000"/>
<path fill-rule="evenodd" clip-rule="evenodd" d="M63.2719 28.2378C63.2697 28.2378 63.2675 28.2378 63.2654 28.2378C63.4755 28.24 63.614 28.3115 63.7072 28.4652C63.7483 28.5302 63.77 28.6276 63.77 28.7511C63.77 28.7727 63.7656 28.8009 63.7635 28.8247H63.7721C63.7721 28.8009 63.7765 28.7727 63.7765 28.7511C63.7765 28.6276 63.757 28.5302 63.7158 28.4652C63.6227 28.3093 63.4819 28.2378 63.2719 28.2378Z" fill="#BD0000"/>
<path fill-rule="evenodd" clip-rule="evenodd" d="M0.146973 46.135H1.76256L2.48805 43.1031H5.11284L5.45068 41.8037H2.81507L3.25253 39.8546H6.05707L6.39491 38.3386H1.96613L0.146973 46.135Z" fill="#663366"/>
<path fill-rule="evenodd" clip-rule="evenodd" d="M7.39326 46.1351L7.87837 44.0994C8.13392 42.9971 8.67317 42.0204 9.69319 42.0204C9.78415 42.0204 9.87294 42.0658 9.94008 42.0767L10.3342 40.5152C10.2433 40.5152 10.1437 40.5044 10.031 40.5044C9.27955 40.5044 8.64934 41.0328 8.2292 41.7908H8.18589C8.2487 41.4205 8.30284 41.0696 8.34398 40.721H6.95146C6.87133 41.1714 6.74789 42.0528 6.55948 42.8476L5.76685 46.1351H7.39326Z" fill="#663366"/>
<path fill-rule="evenodd" clip-rule="evenodd" d="M14.579 44.6733C14.1307 44.892 13.6196 44.8357 13.0241 44.8357C12.5541 44.8357 12.1903 44.7534 11.9911 44.5932C11.8871 44.4177 11.8438 44.1449 11.8525 43.9695C14.0463 44.0279 15.4301 43.5212 15.4994 42.1351C15.5514 41.0891 14.7869 40.5044 13.6759 40.5044C11.6922 40.5044 10.3928 42.2543 10.3083 43.9391C10.2347 45.4096 10.997 46.1351 12.5693 46.1351C13.1735 46.1351 13.9748 46.0658 14.631 45.8687L14.579 44.6733ZM13.9856 42.1351C13.9596 42.6506 13.3229 42.6809 12.069 42.6701C12.2055 42.2174 12.6646 41.8038 13.4161 41.8038C13.7864 41.8038 13.9986 41.9446 13.9856 42.1351Z" fill="#663366"/>
<path fill-rule="evenodd" clip-rule="evenodd" d="M20.3202 44.6733C19.8719 44.892 19.3608 44.8357 18.7674 44.8357C18.2953 44.8357 17.9336 44.7534 17.7344 44.5932C17.6305 44.4177 17.585 44.1449 17.5936 43.9695C19.7896 44.0279 21.1713 43.5212 21.2428 42.1351C21.2948 41.0891 20.5303 40.5044 19.4193 40.5044C17.4334 40.5044 16.134 42.2543 16.0495 43.9391C15.9781 45.4096 16.7404 46.1351 18.3105 46.1351C18.9169 46.1351 19.7182 46.0658 20.3743 45.8687L20.3202 44.6733ZM19.729 42.1351C19.703 42.6506 19.0663 42.6809 17.8102 42.6701C17.9488 42.2174 18.4058 41.8038 19.1572 41.8038C19.5276 41.8038 19.742 41.9446 19.729 42.1351Z" fill="#663366"/>
<path fill-rule="evenodd" clip-rule="evenodd" d="M28.6795 46.1351C28.6925 45.4486 28.8571 44.3701 29.0282 43.6619L29.7234 40.721C29.2816 40.5715 28.5929 40.5044 27.9302 40.5044C25.2405 40.5044 23.9064 42.4968 23.8133 44.3636C23.7548 45.5352 24.3894 46.1351 25.3769 46.1351C26.0158 46.1351 26.7369 45.8254 27.2978 44.8942H27.3217C27.2784 45.3425 27.2264 45.7778 27.1982 46.1351H28.6795ZM27.5686 43.0426C27.2524 44.4199 26.607 44.8357 26.1262 44.8357C25.6779 44.8357 25.483 44.5174 25.509 44.0539C25.561 43.0079 26.3883 41.8038 27.4321 41.8038C27.601 41.8038 27.7331 41.7735 27.8566 41.7432L27.5686 43.0426Z" fill="#663366"/>
<path fill-rule="evenodd" clip-rule="evenodd" d="M29.7385 45.8796C30.0504 46.1221 30.7044 46.1243 31.3866 46.1351C32.8441 46.1459 33.9442 45.5092 34.0092 44.3398C34.046 43.5601 33.4418 43.0989 32.8506 42.7892C32.4239 42.5834 32.2095 42.3864 32.2204 42.1568C32.2355 41.8471 32.5257 41.8038 32.9524 41.8038C33.4331 41.8038 33.8186 41.8623 34.0395 41.9056L34.477 40.7318C34.2279 40.5824 33.7298 40.5044 33.091 40.5044C31.6768 40.5044 30.6416 41.2515 30.5831 42.3864C30.5485 43.088 31.0531 43.5601 31.6638 43.8807C32.1576 44.134 32.3265 44.329 32.3135 44.604C32.2983 44.8812 32.0515 44.8357 31.6032 44.8357C31.0769 44.8357 30.4943 44.7664 30.1868 44.7188L29.7385 45.8796Z" fill="#663366"/>
<path fill-rule="evenodd" clip-rule="evenodd" d="M38.3795 46.135L39.6898 40.7209H38.085L36.7661 46.135H38.3795ZM39.131 40.0712C39.6811 40.0712 40.1705 39.6164 40.2009 38.8367C40.2268 38.3083 39.8847 38.1221 39.3801 38.1221C38.8538 38.1221 38.373 38.4642 38.3449 38.9753C38.3189 39.4908 38.6611 40.0712 39.131 40.0712Z" fill="#663366"/>
<path fill-rule="evenodd" clip-rule="evenodd" d="M41.4764 46.1351L42.0482 43.6966C42.3449 42.4556 42.9837 42.0203 43.51 42.0203C43.9258 42.0203 44.0471 42.1979 44.0276 42.4556C44.0167 42.6635 43.9843 42.8823 43.9409 43.0772L43.2133 46.1351H44.8289L45.5955 42.9278C45.654 42.6506 45.719 42.2369 45.732 41.9857C45.7796 41.009 45.2923 40.6538 44.3957 40.6538C43.6767 40.6538 42.9772 40.9873 42.425 41.7107H42.4033L42.5506 40.7209H41.1256C41.0325 41.1844 40.9134 41.7453 40.7444 42.3993L39.8608 46.1351H41.4764Z" fill="#663366"/>
<path fill-rule="evenodd" clip-rule="evenodd" d="M48.4282 46.135H50.0438L50.7715 43.1031H53.3941L53.7319 41.8037H51.0963L51.5338 39.8546H54.3383L54.6762 38.3386H50.2474L48.4282 46.135Z" fill="#663366"/>
<path fill-rule="evenodd" clip-rule="evenodd" d="M55.6745 46.1351L56.1596 44.0994C56.4152 42.9971 56.9544 42.0204 57.9744 42.0204C58.0654 42.0204 58.1542 42.0658 58.2213 42.0767L58.6155 40.5152C58.5245 40.5152 58.4249 40.5044 58.3123 40.5044C57.5608 40.5044 56.9306 41.0328 56.5105 41.7908H56.4671C56.5299 41.4205 56.5841 41.0696 56.6252 40.721H55.2327C55.1547 41.1714 55.0291 42.0528 54.8407 42.8476L54.0481 46.1351H55.6745Z" fill="#663366"/>
<path fill-rule="evenodd" clip-rule="evenodd" d="M62.8603 44.6733C62.412 44.892 61.9009 44.8357 61.3053 44.8357C60.8354 44.8357 60.4715 44.7534 60.2723 44.5932C60.1683 44.4177 60.125 44.1449 60.1337 43.9695C62.3275 44.0279 63.7114 43.5212 63.7807 42.1351C63.8326 41.0891 63.0682 40.5044 61.9572 40.5044C59.9734 40.5044 58.674 42.2543 58.5896 43.9391C58.5159 45.4096 59.2804 46.1351 60.8505 46.1351C61.4547 46.1351 62.2582 46.0658 62.9122 45.8687L62.8603 44.6733ZM62.2669 42.1351C62.2409 42.6506 61.6042 42.6809 60.3503 42.6701C60.4867 42.2174 60.9458 41.8038 61.6973 41.8038C62.0676 41.8038 62.2799 41.9446 62.2669 42.1351Z" fill="#663366"/>
<path fill-rule="evenodd" clip-rule="evenodd" d="M68.6015 44.6733C68.1532 44.892 67.6421 44.8357 67.0487 44.8357C66.5766 44.8357 66.2149 44.7534 66.0157 44.5932C65.9117 44.4177 65.8662 44.1449 65.8749 43.9695C68.0709 44.0279 69.4526 43.5212 69.524 42.1351C69.576 41.0891 68.8115 40.5044 67.7005 40.5044C65.7146 40.5044 64.4152 42.2543 64.3308 43.9391C64.2593 45.4096 65.0216 46.1351 66.5917 46.1351C67.1981 46.1351 67.9994 46.0658 68.6556 45.8687L68.6015 44.6733ZM68.0102 42.1351C67.9842 42.6506 67.3475 42.6809 66.0915 42.6701C66.2301 42.2174 66.687 41.8038 67.4385 41.8038C67.8088 41.8038 68.0232 41.9446 68.0102 42.1351Z" fill="#663366"/>
<path fill-rule="evenodd" clip-rule="evenodd" d="M75.0205 38.1221L74.4119 40.5823C74.191 40.4913 73.903 40.5043 73.6777 40.5043C71.603 40.5043 70.1347 42.2801 70.0373 44.2033C69.9723 45.559 70.6956 46.135 71.6269 46.135C72.2787 46.135 72.9652 45.847 73.485 45.102H73.5067L73.3832 46.135H74.8515C74.9187 45.4853 75.0594 44.7122 75.2175 44.0062L76.623 38.1221H75.0205ZM73.7557 43.4106C73.5023 44.4783 72.9046 44.8356 72.4325 44.8356C71.9625 44.8356 71.7005 44.5086 71.733 43.926C71.7871 42.8475 72.5278 41.8037 73.4915 41.8037C73.7622 41.8037 73.9939 41.8448 74.1217 41.9055L73.7557 43.4106Z" fill="#663366"/>
<path fill-rule="evenodd" clip-rule="evenodd" d="M78.7044 46.1351C80.5885 46.1351 82.0417 44.7079 82.1434 42.7653C82.2063 41.4789 81.405 40.5044 79.9258 40.5044C77.9724 40.5044 76.5712 42.0853 76.4737 43.9954C76.4066 45.3858 77.3032 46.1351 78.7044 46.1351ZM78.9578 44.8357C78.4077 44.8357 78.1045 44.4849 78.137 43.9608C78.1803 43.088 78.7195 41.8038 79.6486 41.8038C80.2896 41.8038 80.4867 42.2954 80.4607 42.7783C80.4131 43.7312 79.8327 44.8357 78.9578 44.8357Z" fill="#663366"/>
<path fill-rule="evenodd" clip-rule="evenodd" d="M84.1508 46.1351L84.7356 43.6619C84.9803 42.5596 85.591 41.8038 86.1389 41.8038C86.5331 41.8038 86.6413 42.0918 86.6219 42.4687C86.611 42.6636 86.5677 42.8823 86.5222 43.0989L85.7989 46.1351H87.3582L87.9429 43.6511C88.2114 42.5141 88.7875 41.8038 89.3246 41.8038C89.6949 41.8038 89.8487 42.068 89.8314 42.4448C89.8205 42.6636 89.7751 42.9039 89.7187 43.1227L89.0171 46.1351H90.5872L91.343 42.9278C91.4015 42.6397 91.4686 42.1914 91.4794 41.9619C91.5271 41.009 91.0615 40.5044 90.2212 40.5044C89.5022 40.5044 88.8027 40.8292 88.2721 41.5136C88.2526 41.0198 87.8996 40.5044 87.0247 40.5044C86.3165 40.5044 85.6408 40.8249 85.0994 41.5504H85.0777L85.2228 40.721H83.8325C83.7415 41.1844 83.6311 41.7453 83.4621 42.3993L82.5916 46.1351H84.1508Z" fill="#663366"/>
<path d="M68.7932 31.6045C68.8811 31.8304 68.969 32.0561 69.0606 32.2768C69.2017 32.5766 69.3646 32.8636 69.5606 33.1316C70.6193 34.5706 72.3922 35.3585 74.6431 35.5547H77.0644C77.83 35.495 78.6323 35.3836 79.4638 35.221C80.8978 34.9406 82.418 34.5098 83.9968 33.9341C85.1928 33.4981 86.4218 32.9821 87.6691 32.3825C90.3852 31.0804 93.1912 29.4011 95.944 27.3745C96.8506 26.7076 97.7205 26.0233 98.5557 25.3276C99.3213 24.6906 100.056 24.0436 100.757 23.3896C102.715 21.5027 104.193 19.5864 105.03 17.9038C105.902 16.1515 106.076 14.6534 105.362 13.7096C104.924 13.1302 104.191 12.8198 103.248 12.7467C107.497 9.55836 109.974 5.6907 109.085 3.25219C108.803 2.47397 108.182 1.89336 107.292 1.57228C106.897 1.43 106.452 1.33986 105.966 1.29883H104.658C102.832 1.43053 100.177 2.08439 97.9242 3.18843" stroke="#663266" stroke-width="1.08283"/>
<path fill-rule="evenodd" clip-rule="evenodd" d="M9.60569 2.14588L2.07324 35.0098C2.07541 35.0098 21.888 35.0098 21.8923 35.0098C30.6057 35.0098 56.7392 35.0098 56.7392 35.0098H74.8631C72.7039 34.8214 70.9992 34.0634 69.9835 32.6817C69.7952 32.4262 69.6395 32.1509 69.5031 31.8628C69.4164 31.6506 69.335 31.4365 69.2526 31.2199C69.0361 30.5312 68.9497 29.767 68.9887 28.9527C69.097 26.6831 70.162 23.9834 72.0071 21.1563C73.967 18.1519 76.8076 15.003 80.3246 12.0809C81.1129 11.4264 81.928 10.7801 82.7813 10.1521C83.836 9.37613 84.8988 8.66148 85.9621 7.99317C89.8798 5.52669 93.7877 3.80082 97.2506 2.92417C93.9415 4.00374 90.2239 5.83651 86.5509 8.33156C86.4188 8.42077 86.2883 8.51217 86.1583 8.60228C84.1205 10.0143 82.2742 11.5139 80.663 13.0283C75.4784 17.9032 72.738 22.9546 73.9833 25.914C74.0721 26.1176 74.1779 26.312 74.3013 26.4961C75.6397 28.4646 78.9567 28.8049 83.1603 27.7481C83.4461 27.6766 83.732 27.5957 84.0265 27.5112C85.3692 27.1236 86.7948 26.6 88.2631 25.9546C88.6161 25.7987 88.9729 25.6385 89.3324 25.4674C89.3692 25.45 89.4039 25.4327 89.4407 25.4132C94.0752 23.1105 97.6369 20.4608 98.4079 18.8689C98.5768 18.5226 98.6174 18.2273 98.5026 17.9958C97.9525 16.8805 94.1034 17.634 89.4407 19.6539C89.066 19.8164 88.687 19.9835 88.3037 20.1615C88.6156 19.872 88.9402 19.5813 89.2715 19.2952C89.7999 18.84 90.347 18.3949 90.9296 17.9552C91.8413 17.2648 92.7631 16.6407 93.6705 16.0873C97.9195 12.8817 100.068 9.84938 99.6193 8.72408C99.5348 8.51205 99.3551 8.36622 99.0779 8.27738C98.1921 7.99565 96.5755 8.33194 94.6112 9.13692C92.9913 9.80136 91.1307 10.7868 89.2444 12.0132L88.9873 12.1824L88.9399 12.2094L88.033 12.8118L88.5541 11.8575C89.3273 10.4423 90.5866 8.96561 92.1545 7.59387C93.3045 6.59093 94.6183 5.64598 96.0324 4.81913C96.5673 4.50596 97.1014 4.21509 97.6364 3.95285C98.1843 3.68515 98.7325 3.44726 99.2674 3.23546C100.821 2.62086 102.529 1.84472 103.822 1.74316C103.705 1.74316 99.9645 2.14588 99.9645 2.14588H87.7149H33.7019H9.60569ZM68.2781 2.19328C68.0659 5.43245 68.6939 10.1769 70.1189 15.4444C70.3723 16.3817 70.6481 17.3356 70.9513 18.3004C71.1398 18.8961 71.3341 19.4826 71.5334 20.06C71.4164 20.2319 71.2987 20.4028 71.1882 20.5743C69.4102 23.2991 68.3709 25.8742 68.1089 28.1135C67.3574 25.597 66.7917 22.8406 66.4711 19.9178C66.3802 19.0804 66.309 18.2523 66.2613 17.4341C65.9105 11.4909 66.6863 6.10335 68.2781 2.19328ZM32.7951 6.40952C32.8356 6.40858 32.8756 6.40952 32.9169 6.40952H40.9231C41.6074 6.40952 42.1367 6.53779 42.5135 6.79529C42.8881 7.0543 43.0286 7.38935 42.9398 7.79692L41.9856 12.1079H39.1635L40.0906 7.91198H33.0252L30.4737 19.4441L29.5533 23.6198H36.612L36.6188 23.5927L38.0333 17.204H34.7171L35.0352 15.7625H41.1735L39.4139 23.7348C39.3901 23.8483 39.3484 23.9511 39.292 24.0529C39.1469 24.3171 38.8938 24.5434 38.5408 24.7297C38.0514 24.9874 37.4656 25.1154 36.7812 25.1154H28.7818C28.0975 25.1154 27.5683 24.9874 27.1914 24.7297C26.8168 24.472 26.6741 24.1429 26.765 23.7348L30.291 7.79692C30.382 7.38935 30.6657 7.0543 31.1573 6.79529C31.1746 6.78596 31.1941 6.78385 31.2114 6.77501C31.6601 6.55025 32.1867 6.4239 32.7951 6.40952ZM45.3424 6.40952H55.4195C56.0952 6.40952 56.6263 6.53779 57.0031 6.79529C57.3821 7.0543 57.5272 7.38935 57.4363 7.79692L55.5548 16.2971C55.466 16.7021 55.1756 17.0325 54.6818 17.292C54.188 17.5523 53.6068 17.6845 52.9289 17.6845H45.6063L44.1919 24.0664L43.9618 25.1154H41.2005L41.4103 24.168L45.3424 6.40952ZM59.2635 6.40952H62.0247L58.8981 20.5337L58.2145 23.6198H64.8198C64.8891 24.1263 64.97 24.6239 65.0567 25.1154H55.1217L55.9067 21.5692L59.2635 6.40952ZM47.772 7.91198L45.9379 16.1821H52.8207L54.648 7.91198H47.772ZM33.0954 27.4309C33.1225 27.4299 33.1495 27.4309 33.1767 27.4309C33.4972 27.4309 33.7771 27.4871 34.0023 27.5933C34.2427 27.7059 34.4146 27.8732 34.5099 28.0941C34.603 28.3085 34.6274 28.5519 34.5776 28.8182L34.5573 28.9198H33.7655L33.7722 28.825C33.7927 28.6389 33.7696 28.4925 33.6978 28.3919C33.6884 28.3793 33.6749 28.3626 33.6639 28.3513C33.6461 28.333 33.6193 28.3122 33.5963 28.2971C33.4855 28.2273 33.3122 28.1888 33.0887 28.1888C32.792 28.1888 32.5703 28.2405 32.4187 28.3445C32.2714 28.4463 32.1783 28.56 32.148 28.6964C32.1177 28.835 32.1675 28.9079 32.2021 28.9468C32.2032 28.9479 32.2076 28.9524 32.2089 28.9536C32.2528 28.991 32.4052 29.0787 32.8789 29.1905C33.3077 29.2944 33.5917 29.3878 33.7519 29.4679C33.9945 29.5914 34.164 29.7514 34.2527 29.9484C34.3415 30.1434 34.361 30.3716 34.3069 30.6184C34.2527 30.8589 34.1301 31.0806 33.9482 31.2885C33.7685 31.4963 33.5397 31.6609 33.2646 31.7757C32.9918 31.8884 32.6924 31.9517 32.3849 31.9517C31.995 31.9517 31.6821 31.8927 31.4374 31.7757C31.1818 31.6545 30.9975 31.4631 30.8892 31.214C30.7853 30.9715 30.763 30.6961 30.8215 30.3951L30.8418 30.3004H31.6201L31.6133 30.3951C31.5938 30.5749 31.6131 30.72 31.6607 30.8283C31.7062 30.9322 31.7928 31.0183 31.9314 31.0854C32.0787 31.1569 32.2628 31.1937 32.4728 31.1937C32.6613 31.1937 32.8334 31.162 32.9872 31.1057C33.1388 31.0516 33.2593 30.9801 33.3459 30.8892C33.4303 30.7982 33.4799 30.7021 33.5015 30.5982C33.5232 30.505 33.518 30.4262 33.4812 30.3613C33.4401 30.292 33.3586 30.2305 33.2308 30.1786L32.5676 29.9823C32.1973 29.8892 31.9479 29.8004 31.8028 29.7116C31.6057 29.5947 31.4637 29.4446 31.39 29.2649C31.3164 29.0873 31.3085 28.8905 31.3562 28.6761C31.406 28.4465 31.5167 28.2281 31.6878 28.0332C31.8611 27.8361 32.0846 27.6815 32.351 27.5797C32.5865 27.4914 32.8344 27.4396 33.0954 27.4309ZM40.2016 27.4444C40.2444 27.4411 40.2847 27.4444 40.3301 27.4444L40.8174 27.4985L40.9798 27.5121L40.743 28.1144L40.6956 28.2091L40.3234 28.1753C40.2134 28.1753 40.1327 28.1923 40.0797 28.2295C40.0762 28.2321 40.0694 28.2402 40.0662 28.243C40.0591 28.2492 40.0471 28.2601 40.0391 28.2701C40.0065 28.3128 39.9669 28.3892 39.9376 28.5272C39.9376 28.5272 39.9235 28.5857 39.9106 28.6355C40.0816 28.6355 40.4926 28.6355 40.4926 28.6355L40.3437 29.3055C40.3437 29.3055 39.9181 29.3055 39.7752 29.3055C39.7319 29.5004 39.1999 31.884 39.1999 31.884H38.4149C38.4149 31.884 38.9252 29.5935 38.9901 29.3055C38.858 29.3055 38.5367 29.3055 38.5367 29.3055L38.6856 28.6355C38.6856 28.6355 39.0088 28.6355 39.1323 28.6355C39.1539 28.5424 39.1864 28.4257 39.1864 28.4257C39.234 28.2091 39.2838 28.0535 39.3488 27.9452C39.4376 27.7958 39.5629 27.6707 39.721 27.5797C39.8513 27.5041 40.0159 27.4588 40.2016 27.4444ZM42.0762 27.4782C42.0762 27.4782 41.871 28.4016 41.819 28.6355C41.9706 28.6355 42.3266 28.6355 42.3266 28.6355L42.1777 29.3055C42.1777 29.3055 41.8044 29.3055 41.6701 29.3055C41.629 29.4917 41.3047 30.9365 41.3047 30.9365C41.3047 30.9365 41.2776 31.1101 41.2776 31.1599C41.2777 31.1615 41.2775 31.1654 41.2776 31.1666V31.1734H41.2844L41.3656 31.1802L41.7378 31.1531L41.6972 31.7554L41.704 31.8637L41.1693 31.9246C40.9571 31.9246 40.8014 31.89 40.6888 31.8163C40.5697 31.7384 40.5004 31.635 40.4723 31.505C40.4679 31.4812 40.4587 31.4465 40.4587 31.3967C40.4587 31.2993 40.4771 31.1344 40.5399 30.8485C40.5399 30.8485 40.8244 29.5741 40.8851 29.3055C40.7833 29.3055 40.5129 29.3055 40.5129 29.3055L40.6617 28.6355C40.6617 28.6355 40.9257 28.6355 41.034 28.6355C41.0686 28.4796 41.1896 27.9452 41.1896 27.9452L41.819 27.6136L42.0762 27.4782ZM17.1372 27.5053H20.1827L20.0135 28.2633C20.0135 28.2633 17.9818 28.2633 17.7869 28.2633C17.7523 28.4171 17.6134 29.0397 17.5636 29.2649C17.8451 29.2649 19.4924 29.2649 19.4924 29.2649L19.3232 30.0229C19.3232 30.0229 17.5893 30.0229 17.3944 30.0229C17.3533 30.2113 16.9816 31.884 16.9816 31.884H16.1627L17.1372 27.5053ZM21.2182 28.5746C21.2487 28.5709 21.2821 28.5746 21.3129 28.5746C21.5078 28.5746 21.6878 28.6339 21.8611 28.7573L21.9694 28.8318L21.5498 29.5221L21.4347 29.4409C21.3503 29.3867 21.2593 29.3597 21.164 29.3597C21.0817 29.3597 21.0051 29.3889 20.9271 29.4409C20.8449 29.495 20.7761 29.5668 20.7241 29.6642C20.6332 29.831 20.5666 30.0177 20.5211 30.2191L20.1556 31.884H19.3706L20.0947 28.6355H20.8256C20.8256 28.6355 20.8004 28.734 20.7918 28.7708C20.8264 28.7449 20.863 28.7091 20.8933 28.6897C20.9982 28.6271 21.109 28.588 21.2182 28.5746ZM23.5462 28.5746C23.5935 28.571 23.64 28.5746 23.6884 28.5746C24.1302 28.5746 24.4645 28.7294 24.6832 29.0348C24.8197 29.2319 24.893 29.4755 24.893 29.7657C24.893 29.926 24.8733 30.0984 24.8321 30.2868L24.7712 30.5237C24.7712 30.5237 22.7858 30.5237 22.5649 30.5237C22.5606 30.5692 22.5582 30.6179 22.5582 30.6591C22.5582 30.828 22.5928 30.9609 22.6664 31.0584C22.7014 31.106 22.742 31.1489 22.7883 31.1802C22.8755 31.2371 22.9881 31.2681 23.1199 31.2681C23.2801 31.2681 23.4209 31.224 23.553 31.1396C23.6786 31.0594 23.7988 30.9314 23.9049 30.7538H24.7441L24.6697 30.9162C24.5094 31.2411 24.2858 31.4945 24.0064 31.6742C23.7271 31.854 23.3933 31.9517 23.0251 31.9517C22.5465 31.9517 22.1903 31.7969 21.9694 31.4915C21.7506 31.1926 21.7035 30.7795 21.8205 30.2598C21.9374 29.7313 22.1708 29.309 22.5108 29.0145C22.8155 28.7502 23.1613 28.6037 23.5462 28.5746ZM27.0722 28.5746C27.1195 28.571 27.166 28.5746 27.2143 28.5746C27.6561 28.5746 27.9905 28.7294 28.2092 29.0348C28.3456 29.2319 28.419 29.4755 28.419 29.7657C28.419 29.9238 28.3992 30.0938 28.3581 30.28L28.2972 30.5237C28.2972 30.5237 26.3118 30.5237 26.0909 30.5237C26.0887 30.554 26.0863 30.5814 26.0841 30.6117C26.0825 30.623 26.0848 30.6403 26.0841 30.6523C26.0841 30.6542 26.0841 30.6572 26.0841 30.6591C26.0841 30.6915 26.0887 30.7235 26.0909 30.7538C26.1017 30.8772 26.1339 30.9804 26.1924 31.0584C26.2036 31.0735 26.214 31.0922 26.2262 31.1057C26.3254 31.2118 26.4658 31.2681 26.6458 31.2681C26.8061 31.2681 26.949 31.224 27.079 31.1396C27.2046 31.0594 27.3248 30.9314 27.4309 30.7538H28.2768L28.1956 30.9162C28.0354 31.2411 27.8118 31.4945 27.5324 31.6742C27.2531 31.854 26.9193 31.9517 26.5511 31.9517C26.0725 31.9517 25.7162 31.7969 25.4953 31.4915C25.3524 31.2966 25.2855 31.0483 25.2855 30.7538C25.2855 30.7083 25.288 30.6593 25.2923 30.6117C25.301 30.4991 25.3183 30.3854 25.3465 30.2598C25.4634 29.7335 25.69 29.309 26.03 29.0145C26.3347 28.7502 26.6873 28.6037 27.0722 28.5746ZM36.6756 28.5746C36.7239 28.5709 36.7684 28.5746 36.8177 28.5746C37.2682 28.5746 37.6144 28.727 37.8396 29.028C38.0627 29.3291 38.1168 29.7351 38.0021 30.2462C37.9133 30.6447 37.7849 30.9666 37.6095 31.2005C37.4341 31.4344 37.2105 31.6255 36.9463 31.7554C36.6843 31.8853 36.4068 31.9517 36.1274 31.9517C35.6683 31.9517 35.3264 31.7947 35.1055 31.4915C34.9625 31.2987 34.8889 31.0505 34.8889 30.7538C34.8889 30.5936 34.9065 30.4233 34.9498 30.2327C35.0798 29.6523 35.345 29.2102 35.7348 28.9265C36.021 28.72 36.337 28.6006 36.6756 28.5746ZM48.5664 28.5746C48.6235 28.5711 48.6764 28.5746 48.7356 28.5746C49.0085 28.5746 49.2229 28.6022 49.3853 28.6694C49.5586 28.7387 49.6815 28.8366 49.7508 28.9536C49.8179 29.064 49.8523 29.1997 49.8523 29.3664L49.7711 29.8605L49.6222 30.5305C49.4944 31.1022 49.4663 31.3166 49.4598 31.3967C49.4532 31.505 49.4633 31.6106 49.4936 31.7081L49.5477 31.884H48.7491L48.7153 31.7825C48.7023 31.7349 48.7061 31.6742 48.7018 31.62C48.5502 31.7132 48.3983 31.7958 48.2619 31.8434C48.0605 31.9127 47.8515 31.9517 47.6392 31.9517C47.2711 31.9517 46.9985 31.8558 46.8339 31.6674C46.7083 31.5288 46.6512 31.3594 46.6512 31.1666C46.6512 31.093 46.6609 31.0167 46.6782 30.9365C46.715 30.7719 46.7819 30.6195 46.888 30.4831C46.992 30.3488 47.1149 30.2384 47.2535 30.1582C47.3878 30.0781 47.5374 30.0213 47.6934 29.9823L48.1739 29.9011C48.5442 29.8577 48.8206 29.8039 49.0199 29.7454C49.0242 29.7238 49.0334 29.698 49.0334 29.698C49.0648 29.5587 49.0609 29.454 49.0266 29.4003C49.0241 29.3968 49.0159 29.3897 49.0131 29.3867C49.0058 29.3789 48.9946 29.3667 48.986 29.3597C48.9046 29.2952 48.7657 29.2649 48.5799 29.2649C48.3699 29.2649 48.2145 29.2993 48.1062 29.3664C48.0001 29.4335 47.9018 29.5564 47.8152 29.7319H46.9963L47.0707 29.5695C47.1682 29.3442 47.2844 29.1574 47.4295 29.0145C47.5746 28.8716 47.7706 28.7608 47.9979 28.6829C48.1722 28.6254 48.3625 28.5872 48.5664 28.5746ZM51.9976 28.5746C52.0282 28.5709 52.0616 28.5746 52.0924 28.5746C52.2895 28.5746 52.4741 28.6339 52.6474 28.7573L52.7489 28.8318L52.3293 29.5221L52.2142 29.4409C52.1298 29.3867 52.0434 29.3597 51.9503 29.3597C51.868 29.3597 51.7867 29.3889 51.7066 29.4409C51.6243 29.495 51.5645 29.5668 51.5104 29.6642C51.4216 29.831 51.3528 30.0177 51.3073 30.2191L50.9351 31.884H50.15L50.8742 28.6355H51.6051C51.6051 28.6355 51.5867 28.734 51.5781 28.7708C51.6127 28.7449 51.6471 28.7091 51.6796 28.6897C51.7828 28.6271 51.8886 28.588 51.9976 28.5746ZM54.319 28.5746C54.3662 28.571 54.4128 28.5746 54.4611 28.5746C54.9029 28.5746 55.2394 28.7294 55.4559 29.0348C55.5945 29.2319 55.6657 29.4755 55.6657 29.7657C55.6657 29.926 55.6392 30.0984 55.598 30.2868L55.5439 30.5237C55.5439 30.5237 53.5564 30.5237 53.3376 30.5237C53.3333 30.5692 53.3241 30.6179 53.3241 30.6591C53.3241 30.828 53.3609 30.9609 53.4324 31.0584C53.4435 31.0735 53.4607 31.0922 53.473 31.1057C53.4801 31.1133 53.4926 31.1258 53.5001 31.1328C53.5969 31.2208 53.7287 31.2681 53.8926 31.2681C54.0529 31.2681 54.1936 31.224 54.3257 31.1396C54.4514 31.0594 54.5694 30.9314 54.6777 30.7538H55.5236L55.4424 30.9162C55.2821 31.2411 55.0564 31.4945 54.7792 31.6742C54.4976 31.854 54.1682 31.9517 53.7978 31.9517C53.3192 31.9517 52.9697 31.7969 52.7489 31.4915C52.5301 31.1926 52.4784 30.7795 52.5932 30.2598C52.7101 29.7313 52.9367 29.309 53.2767 29.0145C53.5834 28.7502 53.9344 28.6037 54.319 28.5746ZM42.4687 28.6355H43.2741C43.2741 28.6355 43.3734 30.5632 43.3756 30.5914C43.4081 30.5223 43.4333 30.4643 43.4365 30.456L44.3231 28.6355H45.0608C45.0608 28.6355 45.1284 30.5399 45.1284 30.5508C45.1501 30.5118 46.1368 28.6355 46.1368 28.6355H46.9354L45.1758 31.884H44.4517C44.4517 31.884 44.3815 30.1225 44.3772 30.0229C44.0784 30.6358 43.4703 31.884 43.4703 31.884H42.7259L42.4687 28.6355ZM23.5598 29.2514C23.3732 29.2592 23.2038 29.3265 23.0454 29.4544C22.9198 29.554 22.8351 29.6908 22.768 29.8401H24.1012C24.1034 29.8164 24.108 29.7874 24.108 29.7657C24.108 29.6423 24.086 29.5464 24.047 29.4815C23.9518 29.3256 23.8105 29.2514 23.6004 29.2514C23.5878 29.2514 23.5722 29.2508 23.5598 29.2514ZM27.0857 29.2514C26.8992 29.2592 26.7298 29.3265 26.5714 29.4544C26.4458 29.554 26.3632 29.6908 26.2939 29.8401H27.6272C27.6293 29.8164 27.6339 29.7874 27.6339 29.7657C27.6339 29.6423 27.6142 29.5464 27.573 29.4815C27.5541 29.4498 27.5285 29.4183 27.5054 29.3935C27.4149 29.3001 27.2905 29.2514 27.1264 29.2514C27.1137 29.2514 27.0982 29.2508 27.0857 29.2514ZM54.3596 29.2514C54.1677 29.2573 53.9886 29.3222 53.8249 29.4544C53.7015 29.554 53.6167 29.6908 53.5475 29.8401H54.8739C54.8761 29.8164 54.8807 29.7874 54.8807 29.7657C54.8807 29.6423 54.8609 29.5464 54.8198 29.4815C54.7267 29.3277 54.5832 29.2535 54.3731 29.2514C54.3669 29.2514 54.3658 29.2512 54.3596 29.2514ZM36.6282 29.2649C36.4492 29.2861 36.2827 29.3679 36.1274 29.5085C35.9412 29.6775 35.8061 29.9427 35.7281 30.2936C35.6956 30.4408 35.6807 30.5668 35.6807 30.6793C35.6807 30.8331 35.7102 30.9538 35.7687 31.0448C35.7843 31.0682 35.8049 31.0928 35.8229 31.1125C35.9191 31.2147 36.0535 31.2681 36.2221 31.2681C36.4409 31.2681 36.6336 31.1867 36.8177 31.0177C37.0039 30.8467 37.1369 30.5786 37.217 30.2191C37.2906 29.89 37.2803 29.6442 37.1764 29.4882C37.0768 29.3367 36.9311 29.2649 36.7297 29.2649C36.6956 29.2649 36.6614 29.261 36.6282 29.2649ZM48.8574 30.4492C48.6734 30.4991 48.4671 30.541 48.1942 30.5779C47.9906 30.6082 47.8455 30.6401 47.7611 30.6726C47.6874 30.7029 47.6282 30.7449 47.5783 30.8012C47.5307 30.8553 47.4988 30.9121 47.4836 30.9771C47.4793 31.0031 47.4768 31.0299 47.4768 31.0516C47.4768 31.0533 47.4768 31.0566 47.4768 31.0584C47.477 31.0635 47.4762 31.0737 47.4768 31.0787C47.4782 31.0884 47.4809 31.1033 47.4836 31.1125C47.4846 31.1155 47.4892 31.1231 47.4904 31.126C47.4927 31.1319 47.4942 31.1408 47.4971 31.1463C47.5002 31.1518 47.507 31.1614 47.5107 31.1666C47.5163 31.1744 47.5241 31.1864 47.531 31.1937C47.5851 31.2543 47.6931 31.2817 47.849 31.2817C48.0202 31.2817 48.1847 31.2492 48.3363 31.1734C48.4858 31.0997 48.6062 30.9898 48.695 30.8621C48.76 30.7711 48.812 30.6312 48.8574 30.4492ZM7.51931 25.023L25.6824 6.2698H28.6485L24.263 25.023H21.8234L23.0686 19.6247H15.4543L10.28 25.023H7.51931ZM17.3047 17.6931H23.5322L24.6812 12.9856C25.1449 11.118 25.5912 9.56166 26.0203 8.31655C25.1629 9.39109 24.0286 10.666 22.6174 12.1414L17.3047 17.6931Z" fill="#663366"/>
</svg>
